<svg xmlns="http://www.w3.org/2000/svg" viewBox="0 0 100 100">
  <defs>
    <linearGradient id="nestGrad" x1="0%" y1="0%" x2="100%" y2="100%">
      <stop offset="0%" style="stop-color:#14b8a6"/>
      <stop offset="100%" style="stop-color:#0d9488"/>
    </linearGradient>
  </defs>
  <!-- Nest shape -->
  <path d="M50 15 C20 15 10 40 10 55 C10 75 25 85 50 85 C75 85 90 75 90 55 C90 40 80 15 50 15" 
        fill="url(#nestGrad)" opacity="0.9"/>
  <!-- Inner nest curve -->
  <path d="M50 30 C30 30 22 45 22 55 C22 68 33 75 50 75 C67 75 78 68 78 55 C78 45 70 30 50 30" 
        fill="white" opacity="0.2"/>
  <!-- Heart with pulse -->
  <path d="M50 40 C45 35 35 35 35 47 C35 55 50 65 50 65 C50 65 65 55 65 47 C65 35 55 35 50 40" 
        fill="white"/>
  <!-- Pulse line through heart -->
  <polyline points="30,52 42,52 46,45 50,58 54,48 58,52 70,52" 
            fill="none" stroke="#14b8a6" stroke-width="2.5" stroke-linecap="round" stroke-linejoin="round"/>
</svg>
