<svg xmlns="http://www.w3.org/2000/svg" viewBox="0 0 100 100">
  <defs>
    <linearGradient id="swasthGrad" x1="0%" y1="0%" x2="100%" y2="100%">
      <stop offset="0%" style="stop-color:#14b8a6"/>
      <stop offset="100%" style="stop-color:#0d9488"/>
    </linearGradient>
  </defs>
  <!-- Village hut shape -->
  <path d="M50 10 L85 40 L85 85 L15 85 L15 40 Z" 
        fill="url(#swasthGrad)" opacity="0.9"/>
  <!-- Roof triangle -->
  <path d="M50 10 L90 45 L10 45 Z" 
        fill="url(#swasthGrad)"/>
  <!-- Cross/plus (health symbol) -->
  <rect x="42" y="50" width="16" height="30" rx="2" fill="white"/>
  <rect x="35" y="57" width="30" height="16" rx="2" fill="white"/>
  <!-- Heart in roof -->
  <path d="M50 25 C47 22 42 22 42 28 C42 32 50 38 50 38 C50 38 58 32 58 28 C58 22 53 22 50 25" 
        fill="white" opacity="0.9"/>
  <!-- Pulse line -->
  <polyline points="20,65 35,65 40,55 45,72 50,60 55,65 80,65" 
            fill="none" stroke="white" stroke-width="2" stroke-linecap="round" opacity="0.6"/>
</svg>
